# xmcd
#
# Track frame offsets: 
#        150
#        16732
#        29052
#        53022
#        64350
#        81410
#        97792
#        115652
#        135915
#        154397
#        168562
#        190470
#        209150
#        225667
#        241655
#        252967
#        270890
#        286177
#        303632
#
# Disc length: 4339 seconds
#
# Revision: 4
# Processed by: cddbd v1.5PL3 Copyright (c) Steve Scherf et al.
# Submitted via: ExactAudioCopy v0.95a4
#
DISCID=0410f113
DTITLE=Various Artist - Bound For Movin' On
DYEAR=2001
DGENRE=Country
TTITLE0=Anne Murray - You Needed Me
TTITLE1=Terry Carisse - Counting The I Love Yous
TTITLE2=Rita MacNeil - Fluing On Your Own
TTITLE3=K.D.Lang - Shadowland
TTITLE4=Patricia Conroy - Bad Day For Trains
TTITLE5=Prairie Oyster - Did You Fall In Love With Me
TTITLE6=Michelle Wright - Take It Like A Man
TTITLE7=Blue Rodeo - Till I Gain Control Again
TTITLE8=Charlie Major - I'm Gonna Drive You Out Of My Mind
TTITLE9=Terri Clark - Better Things To Do
TTITLE10=The Rankin Family - You Feel The Same Way Too
TTITLE11=Shania Twain - Any Man Of Mine
TTITLE12=Paul Brandt - I Do (Robbin's Song)
TTITLE13=Farmer's Daughter - Cornfields Or Cadillacs
TTITLE14=Julian Austin - Little Ol' Kisses
TTITLE15=George Fox - I Give You My Word
TTITLE16=Jason McCoy - Born Again In Dixieland
TTITLE17=The Wilkinsons - 26¢
TTITLE18=Carolyn Dawn Johnson - Georgia
EXTD=ID3G:   2
EXTT0=
EXTT1=
EXTT2=
EXTT3=
EXTT4=
EXTT5=
EXTT6=
EXTT7=
EXTT8=
EXTT9=
EXTT10=
EXTT11=
EXTT12=
EXTT13=
EXTT14=
EXTT15=
EXTT16=
EXTT17=
EXTT18=
PLAYORDER=
